<?xml version="1.0" standalone="no"?>
<!DOCTYPE svg PUBLIC "-//W3C//DTD SVG 20010904//EN"
 "http://www.w3.org/TR/2001/REC-SVG-20010904/DTD/svg10.dtd">
<svg version="1.0" xmlns="http://www.w3.org/2000/svg"
 width="55px" height="58px" viewBox="0 0 64.000000 64.000000"
 preserveAspectRatio="xMidYMid meet">

<g transform="translate(0.000000,64.000000) scale(0.100000,-0.100000)"
fill="#333" stroke="none">
<path d="M368 454 c-51 -27 -63 -150 -18 -174 59 -32 100 4 100 87 0 50 1 53
25 53 28 0 65 -32 65 -55 0 -10 11 -15 35 -15 37 0 44 -14 25 -51 -8 -15 -21
-19 -60 -19 -102 0 -129 -34 -132 -165 0 -42 -5 -78 -9 -81 -5 -2 -17 13 -28
35 -62 121 -225 117 -277 -7 -10 -24 -18 -32 -25 -25 -12 12 12 126 36 173 21
41 0 49 -24 9 -21 -34 -46 -151 -40 -184 3 -13 14 -21 32 -23 23 -3 30 2 42
31 48 116 192 116 240 0 12 -29 19 -34 42 -31 28 3 28 4 34 95 8 125 18 139
105 145 78 5 94 19 94 85 0 42 0 43 -35 43 -19 0 -35 4 -35 10 0 19 -45 50
-74 50 -17 0 -40 7 -50 15 -24 18 -34 18 -68 -1z m52 -78 c0 -73 -14 -95 -49
-76 -31 16 -30 102 1 124 40 29 48 21 48 -48z"/>
<path d="M30 398 c1 -26 39 -96 61 -112 18 -12 47 -16 116 -16 55 0 93 4 93
10 0 6 -35 10 -84 10 -97 0 -123 14 -150 80 -15 38 -36 54 -36 28z"/>
<path d="M470 380 c0 -5 7 -10 15 -10 8 0 15 5 15 10 0 6 -7 10 -15 10 -8 0
-15 -4 -15 -10z"/>
<path d="M480 200 c0 -5 6 -10 13 -10 19 0 61 -47 49 -54 -6 -3 -17 -3 -26 0
-10 4 -16 1 -16 -9 0 -21 37 -32 55 -17 22 18 18 54 -8 78 -24 22 -67 30 -67
12z"/>
<path d="M187 60 c3 -19 1 -30 -6 -30 -6 0 -11 -4 -11 -10 0 -16 37 -11 44 6
9 23 -4 64 -20 64 -10 0 -12 -8 -7 -30z"/>
</g>
</svg>
